name D:\school\WTK\thesis\model\3dpredictsim\Results\batch_windlass\Pog_s1_tmt_bCst_d05_k1000_WL30_ig24_act_TTC.mot
datacolumns 128
datarows 4
range 1.80374590 1.83982081
endheader
time	pelvis_tilt	pelvis_list	pelvis_rotation	pelvis_tx	pelvis_ty	pelvis_tz	hip_flexion_l	hip_adduction_l	hip_rotation_l	hip_flexion_r	hip_adduction_r	hip_rotation_r	knee_angle_l	knee_angle_r	ankle_angle_l	ankle_angle_r	subtalar_angle_l	subtalar_angle_r	tmt_angle_l	tmt_angle_r	mtp_angle_l	mtp_angle_r	lumbar_extension	lumbar_bending	lumbar_rotation	arm_flex_l	arm_add_l	arm_rot_l	arm_flex_r	arm_add_r	arm_rot_r	elbow_flex_l	elbow_flex_r	pro_sup_l	pro_sup_r	glut_med1_l/activation	glut_med2_l/activation	glut_med3_l/activation	glut_min1_l/activation	glut_min2_l/activation	glut_min3_l/activation	semimem_l/activation	semiten_l/activation	bifemlh_l/activation	bifemsh_l/activation	sar_l/activation	add_long_l/activation	add_brev_l/activation	add_mag1_l/activation	add_mag2_l/activation	add_mag3_l/activation	tfl_l/activation	pect_l/activation	grac_l/activation	glut_max1_l/activation	glut_max2_l/activation	glut_max3_l/activation	iliacus_l/activation	psoas_l/activation	quad_fem_l/activation	gem_l/activation	peri_l/activation	rect_fem_l/activation	vas_med_l/activation	vas_int_l/activation	vas_lat_l/activation	med_gas_l/activation	lat_gas_l/activation	soleus_l/activation	tib_post_l/activation	flex_dig_l/activation	flex_hal_l/activation	tib_ant_l/activation	per_brev_l/activation	per_long_l/activation	per_tert_l/activation	ext_dig_l/activation	ext_hal_l/activation	ercspn_l/activation	intobl_l/activation	extobl_l/activation	glut_med1_r/activation	glut_med2_r/activation	glut_med3_r/activation	glut_min1_r/activation	glut_min2_r/activation	glut_min3_r/activation	semimem_r/activation	semiten_r/activation	bifemlh_r/activation	bifemsh_r/activation	sar_r/activation	add_long_r/activation	add_brev_r/activation	add_mag1_r/activation	add_mag2_r/activation	add_mag3_r/activation	tfl_r/activation	pect_r/activation	grac_r/activation	glut_max1_r/activation	glut_max2_r/activation	glut_max3_r/activation	iliacus_r/activation	psoas_r/activation	quad_fem_r/activation	gem_r/activation	peri_r/activation	rect_fem_r/activation	vas_med_r/activation	vas_int_r/activation	vas_lat_r/activation	med_gas_r/activation	lat_gas_r/activation	soleus_r/activation	tib_post_r/activation	flex_dig_r/activation	flex_hal_r/activation	tib_ant_r/activation	per_brev_r/activation	per_long_r/activation	per_tert_r/activation	ext_dig_r/activation	ext_hal_r/activation	ercspn_r/activation	intobl_r/activation	extobl_r/activation	
          1.80374590	         -2.93017648	          0.60862063	         -8.76747497	          2.25468237	          0.85614816	          0.00264568	         33.17711384	         -1.31691113	         -4.36051911	        -16.92086032	         -2.62721354	          6.72503761	        -19.06904037	        -14.35887283	          2.52533024	         -5.58013538	          7.39661261	         17.06069151	         -0.28561869	        -11.00024173	          0.85839067	         35.21547894	          0.60831541	          2.33449469	          2.74370081	        -12.01519660	        -13.48881358	         12.04007911	          3.16293369	        -13.50656704	         15.93260461	         17.11525973	         38.95450907	         86.51662706	         86.51662706	          0.06010010	          0.05985419	          0.06002059	          0.05000580	          0.05000295	          0.05002106	          0.06658117	          0.06002105	          0.10993922	          0.06002090	          0.05155741	          0.05585709	          0.09739748	          0.12261950	          0.10526770	          0.10277228	          0.05566162	          0.05001342	          0.06002103	          0.06002214	          0.06002097	          0.09889405	          0.08205166	          0.07723216	          0.20713843	          0.05000037	          0.08691194	          0.05001720	          0.07444660	          0.09155663	          0.07685634	          0.07205081	          0.07048556	          0.06390139	          0.06002079	          0.06314106	          0.06353184	          0.49236764	          0.25474909	          0.17175847	          0.12062570	          0.49436834	          0.13613379	          0.05000002	          0.14961009	          0.12515327	          0.14876944	          0.07205082	          0.05770389	          0.18935636	          0.12854668	          0.07523865	          0.05000213	          0.05000034	          0.05000029	          0.05000032	          0.09805652	          0.06971943	          0.05000047	          0.05000049	          0.05000111	          0.05000103	          0.17958604	          0.05000135	          0.05000065	          0.05000922	          0.05000433	          0.05000242	          0.32661259	          0.46380074	          0.05000046	          0.05000225	          0.05002608	          0.21558797	          0.06283415	          0.08649560	          0.08004551	          0.15386822	          0.21446448	          0.05000000	          0.14686123	          0.14117039	          0.16359453	          0.11319450	          0.39028550	          0.33426055	          0.25089613	          0.30780742	          0.05000038	          0.05000000	          0.05141652	          0.05000021	
          1.81577087	         -2.92622544	          0.51926337	         -8.94374889	          2.27403642	          0.85500152	          0.00233614	         32.61844267	         -1.13261027	         -4.16318736	        -17.18003933	         -2.85186384	          6.51880412	        -18.90234960	        -15.40826113	          2.08232030	         -8.36193175	          6.97090250	         17.49781762	         -0.33520189	        -11.60808188	          1.00301422	         36.52032524	          0.84020109	          2.17341252	          2.83493085	        -13.52555848	        -13.48108659	         12.07969239	          2.82054168	        -13.56643995	         16.31477914	         17.21492969	         40.09045603	         86.51662706	         86.51662706	          0.06240210	          0.05000135	          0.05000015	          0.06002070	          0.06001952	          0.05000120	          0.05546517	          0.05000026	          0.09186930	          0.05000015	          0.05002726	          0.06817022	          0.08113695	          0.16864001	          0.18214624	          0.13541680	          0.05000016	          0.05001285	          0.05000039	          0.05000141	          0.05000028	          0.15789479	          0.06835923	          0.06433796	          0.17255642	          0.16315890	          0.23819450	          0.07199949	          0.19915207	          0.19431038	          0.17063985	          0.06002153	          0.05871762	          0.05323270	          0.05000002	          0.05259946	          0.05292497	          0.64760316	          0.24490715	          0.14308260	          0.51191006	          0.60033283	          0.32221048	          0.05000002	          0.12463185	          0.10425823	          0.12393161	          0.06002160	          0.05000017	          0.15774234	          0.10708516	          0.06267728	          0.05000096	          0.05000011	          0.05000011	          0.05000076	          0.08168578	          0.13813314	          0.15792992	          0.07169701	          0.05000170	          0.05000028	          0.14960321	          0.10426033	          0.07084604	          0.05000103	          0.05000066	          0.05000045	          0.27208283	          0.38636664	          0.05236007	          0.05000255	          0.06002105	          0.17959436	          0.05234397	          0.08708875	          0.09168301	          0.12817906	          0.17865844	          0.05000000	          0.12234193	          0.11760124	          0.13628153	          0.29246013	          0.40209104	          0.31889387	          0.58421570	          0.45001959	          0.18968990	          0.05000005	          0.05807827	          0.07316806	
          1.82779584	         -2.91546795	          0.44530464	         -9.07980492	          2.29357736	          0.85345586	          0.00202489	         31.95314460	         -0.91883535	         -3.90148344	        -17.26082935	         -3.05618380	          6.30576763	        -19.44366728	        -16.85194554	          1.62411364	        -10.91651441	          6.50966450	         17.87805408	         -0.42956626	        -11.78817957	          1.22400458	         36.56081606	          1.07834544	          1.97780533	          2.91229112	        -15.01378113	        -13.48798214	         12.20760338	          2.41481471	        -13.64533176	         16.63840295	         17.28869836	         41.23301213	         86.51662706	         86.51662706	          0.18361926	          0.05000012	          0.24689475	          0.05000014	          0.05000012	          0.05000020	          0.05000009	          0.05000020	          0.07653125	          0.05000008	          0.05000015	          0.07204992	          0.08648893	          0.16093318	          0.17070786	          0.14448496	          0.05000045	          0.06009048	          0.07205958	          0.05000033	          0.13233649	          0.16194524	          0.06002050	          0.05695227	          0.22016646	          0.13591871	          0.19842733	          0.06002084	          0.28199093	          0.27089293	          0.24039343	          0.05000068	          0.05000018	          0.05000003	          0.05000002	          0.05000014	          0.05000012	          0.60160316	          0.20401884	          0.12165455	          0.53886273	          0.53468496	          0.26841572	          0.05000000	          0.10382387	          0.08685174	          0.10324058	          0.05000084	          0.06002028	          0.13140645	          0.08920675	          0.05221308	          0.05000849	          0.06002069	          0.06002098	          0.05000016	          0.06804802	          0.18508787	          0.27574904	          0.19154855	          0.07825674	          0.11115543	          0.12462616	          0.08685381	          0.06002146	          0.05022171	          0.06001731	          0.06002262	          0.22665710	          0.32186062	          0.06002173	          0.06002119	          0.05000044	          0.14961008	          0.09924823	          0.07254912	          0.07637631	          0.10677885	          0.14883041	          0.05000001	          0.10191627	          0.09796710	          0.11352859	          0.41240612	          0.42891865	          0.31325052	          0.55725773	          0.53144918	          0.33987677	          0.06671717	          0.06002081	          0.06095228	
          1.83982081	         -2.90043984	          0.38559515	         -9.17161899	          2.31307577	          0.85165587	          0.00172424	         31.12496544	         -0.69529511	         -3.59301719	        -17.14717323	         -3.23956181	          6.09806886	        -20.31057330	        -18.70428470	          1.56162505	        -13.08467375	          6.01596470	         18.20309030	         -0.73129654	        -11.37419163	          1.32676673	         34.79374833	          1.30653671	          1.75153296	          2.97242444	        -16.42362323	        -13.51056225	         12.45861401	          1.98338752	        -13.72844960	         16.90271737	         17.29557941	         42.34869483	         86.51662706	         86.51662706	          0.26568588	          0.35646738	          0.52945793	          0.23704679	          0.28716624	          0.44756127	          0.05515439	          0.05351100	          0.06375410	          0.06002094	          0.05275590	          0.06002081	          0.07204914	          0.13406454	          0.14220731	          0.12870128	          0.05000027	          0.05005829	          0.06002898	          0.26190735	          0.21318772	          0.15625861	          0.05000011	          0.05000009	          0.18340888	          0.12097207	          0.33539350	          0.05000006	          0.30221559	          0.30635652	          0.27629579	          0.05000001	          0.05000004	          0.05000000	          0.09549563	          0.05000162	          0.05000090	          0.73249640	          0.16995677	          0.10134365	          0.45629923	          0.58619385	          0.41844169	          0.05154834	          0.08648990	          0.07235136	          0.27599213	          0.05000055	          0.05000011	          0.20144256	          0.07431330	          0.05000165	          0.05000115	          0.05000012	          0.05000025	          0.05000013	          0.06001541	          0.15418646	          0.22971126	          0.15956851	          0.06519149	          0.09259751	          0.10381924	          0.07235329	          0.05000076	          0.05000140	          0.05000097	          0.05000171	          0.18881546	          0.31761853	          0.05000081	          0.05000073	          0.05000022	          0.12463184	          0.08267879	          0.10382341	          0.06362509	          0.08895152	          0.12398235	          0.05000001	          0.08490079	          0.08161101	          0.09457439	          0.34576182	          0.35730842	          0.26095173	          0.49939764	          0.73993440	          0.28313249	          0.11566280	          0.05000001	          0.05077597	
